<?xml version="1.0" encoding="UTF-8"?><!DOCTYPE svg PUBLIC "-//W3C//DTD SVG 1.1//EN" "http://www.w3.org/Graphics/SVG/1.1/DTD/svg11.dtd"><svg xmlns="http://www.w3.org/2000/svg" xmlns:xlink="http://www.w3.org/1999/xlink"><defs>
<clipPath id="clip0">
<rect width="52" height="52" fill="white"/>
</clipPath>
</defs><symbol id="icon-auto" viewBox="0 0 82 52">
<path d="M80.6664 24.0056C79.8139 22.987 78.651 22.3251 77.3179 22.0776L76.6917 13.5574C77.3094 13.5515 77.8362 13.1054 77.9438 12.4942L78.1853 11.1213C78.4441 9.64958 78.0831 8.19685 77.1947 7.13571C76.3075 6.0757 75.0084 5.49175 73.5368 5.49175H64.1109L64.5698 2.88347C64.7 2.14266 64.5113 1.40296 64.0523 0.854493C63.5978 0.311484 62.9144 0 62.1773 0H15.7792C14.4072 0 13.1442 1.07012 12.9038 2.43664L8.79883 25.7766C8.67583 26.4766 9.14205 27.1442 9.84033 27.2675C9.9156 27.2809 9.99055 27.2873 10.0647 27.2873C10.676 27.2873 11.2178 26.8478 11.3275 26.2234L15.4327 2.88347C15.4597 2.72982 15.657 2.57408 15.7791 2.57408L62.0166 2.57424L57.9356 25.7766C57.8124 26.4766 58.2787 27.1442 58.9771 27.2675C59.6746 27.3907 60.3413 26.9235 60.4643 26.2234L60.7603 24.5409H76.1138C76.1143 24.5409 76.115 24.5409 76.1156 24.5409C76.1162 24.5409 76.1169 24.5409 76.1174 24.5409C77.1786 24.5411 78.0954 24.9385 78.6994 25.6599C79.115 26.1565 79.3575 26.7746 79.4158 27.4584H75.151C74.5278 27.4584 73.9948 27.9069 73.8865 28.5221L73.4037 31.268C73.2091 32.3743 73.4839 33.4704 74.1575 34.2753C74.8219 35.0692 75.8304 35.5244 76.9241 35.5244H78.1329L77.1368 41.1878H73.747C73.5239 40.0551 73.0356 39.0132 72.2955 38.1293C70.9824 36.5602 69.05 35.6962 66.8547 35.6962C63.3346 35.6962 59.9385 38.0051 58.3486 41.188H57.8325L59.4986 31.7152C59.6216 31.0151 59.1555 30.3475 58.4571 30.2242C57.7591 30.1006 57.0929 30.5681 56.9699 31.2683L55.2251 41.1881H31.4576C31.2345 40.0554 30.7462 39.0137 30.0061 38.1297C28.6928 36.5605 26.7605 35.6965 24.5651 35.6965C21.045 35.6965 17.6489 38.0054 16.059 41.1883L8.69537 41.1881L9.20851 38.2708H14.9788C15.6878 38.2708 16.2628 37.6945 16.2628 36.9836C16.2628 36.2728 15.688 35.6964 14.9788 35.6964H1.28397C0.574961 35.6964 0 36.2726 0 36.9836C0 37.6944 0.574801 38.2708 1.28397 38.2708H6.60133L6.14248 40.8791C6.01227 41.6199 6.20093 42.3596 6.65994 42.908C7.11447 43.451 7.79785 43.7625 8.53489 43.7625H15.2253C14.8772 45.946 15.4003 48.0029 16.7096 49.5669C18.0229 51.136 19.9552 52 22.1506 52C26.5203 52 30.7009 48.4435 31.4698 44.0716C31.4879 43.968 31.5021 43.8651 31.5165 43.7624H57.5149C57.1667 45.9456 57.6898 48.0026 58.9992 49.5667C60.3125 51.1359 62.2448 51.9998 64.4402 51.9998C68.8099 51.9998 72.9905 48.4433 73.7594 44.0714C73.7775 43.9679 73.7917 43.865 73.8061 43.7622H78.2144C78.8376 43.7622 79.3706 43.3138 79.4789 42.6985L81.8937 28.9691C82.2214 27.1055 81.7856 25.3428 80.6664 24.0056ZM61.2134 21.9672L62.6924 13.5579H74.1173L74.7354 21.9672H61.2134ZM75.6564 10.6744L75.602 10.9837H63.145L63.6582 8.06615H73.5368C74.2362 8.06615 74.8367 8.32337 75.2275 8.79043C75.6327 9.27435 75.7852 9.94324 75.6564 10.6744ZM28.9411 43.6249C28.3786 46.8237 25.3323 49.4259 22.1506 49.4259C20.7274 49.4259 19.4936 48.8884 18.6766 47.9125C17.8361 46.9082 17.5158 45.5444 17.7748 44.0721C18.3374 40.8733 21.3836 38.2711 24.5653 38.2711C25.9884 38.2711 27.2223 38.8087 28.0392 39.7847C28.8797 40.7887 29.2 42.1526 28.9411 43.6249ZM71.2305 43.6249C70.6679 46.8237 67.6217 49.4259 64.44 49.4259C63.0169 49.4259 61.783 48.8884 60.9661 47.9123C60.1256 46.908 59.8053 45.5443 60.0642 44.0719C60.6267 40.8731 63.673 38.2709 66.8547 38.2709C68.2777 38.2709 69.5117 38.8085 70.3287 39.7845C71.1692 40.7887 71.4895 42.1526 71.2305 43.6249ZM78.5857 32.9508H76.9241V32.9507C76.5815 32.9507 76.3051 32.8367 76.1246 32.6212C75.9373 32.3974 75.869 32.0758 75.9324 31.7156L76.2283 30.0335H79.0988L78.5857 32.9508Z" fill="#AE7C78"/>
<path d="M25.4748 42.0427C25.0202 41.4997 24.3368 41.1882 23.5996 41.1882C22.2276 41.1882 20.9646 42.2584 20.7242 43.6249C20.594 44.3657 20.7827 45.1054 21.2417 45.6539C21.6962 46.1969 22.3796 46.5083 23.1166 46.5083C24.4887 46.5083 25.7517 45.4381 25.9921 44.0719C26.1224 43.3309 25.9339 42.5914 25.4748 42.0427Z" fill="#AE7C78"/>
<path d="M67.7637 42.0427C67.309 41.4997 66.6256 41.1882 65.8888 41.1882C64.5167 41.1882 63.2537 42.2584 63.0135 43.6247C62.8833 44.3657 63.0716 45.1052 63.5308 45.6539C63.9853 46.1969 64.6687 46.5083 65.4057 46.5083C66.7778 46.5083 68.0408 45.4381 68.2812 44.0719C68.4116 43.3309 68.2229 42.5914 67.7637 42.0427Z" fill="#AE7C78"/>
<path d="M51.7904 35.6965H35.5212C34.8122 35.6965 34.2372 36.2728 34.2372 36.9837C34.2372 37.6945 34.812 38.2709 35.5212 38.2709H51.7904C52.4994 38.2709 53.0744 37.6947 53.0744 36.9837C53.0742 36.2728 52.4994 35.6965 51.7904 35.6965Z" fill="#AE7C78"/>
<path d="M28.6739 30.2048H4.98899C4.27998 30.2048 3.70502 30.7811 3.70502 31.492C3.70502 32.2028 4.27966 32.7792 4.98899 32.7792H28.6739C29.3829 32.7792 29.9578 32.203 29.9578 31.492C29.9578 30.7811 29.383 30.2048 28.6739 30.2048Z" fill="#AE7C78"/>
<path d="M53.1922 25.0263L48.4387 20.9075C47.9022 20.4429 47.0915 20.5018 46.6277 21.0397C46.1639 21.5775 46.223 22.3903 46.7595 22.8553L48.9036 24.7132H16.3482C15.6392 24.7132 15.0642 25.2895 15.0642 26.0004C15.0642 26.7112 15.639 27.2876 16.3482 27.2876H48.0894L45.4412 29.0464C44.8499 29.4388 44.6883 30.2376 45.0799 30.8302C45.3269 31.2042 45.7353 31.4066 46.1514 31.4066C46.3948 31.4066 46.6411 31.3373 46.8593 31.1923L53.0616 27.0735C53.3967 26.8513 53.6082 26.4845 53.6339 26.0825C53.6595 25.6803 53.4961 25.2895 53.1922 25.0263Z" fill="#AE7C78"/>
</symbol><symbol id="icon-bouquet" viewBox="0 0 52 52">
<g clip-path="url(#clip0)">
<path d="M35.7023 13.8987C35.9138 13.8987 36.1271 13.882 36.3401 13.8483C37.4002 13.6802 38.3313 13.1093 38.962 12.2408L42.7894 6.97096C42.9445 6.75738 42.978 6.47869 42.8779 6.23443C42.7777 5.99018 42.5582 5.81519 42.2978 5.77192C42.23 5.76065 40.7289 5.51415 38.896 5.49384C38.309 3.75774 37.6115 2.40706 37.5793 2.3449C37.4577 2.1106 37.2234 1.95602 36.9601 1.93642C36.6972 1.91631 36.4422 2.03473 36.2871 2.24842L32.4597 7.51828C31.829 8.38674 31.5742 9.44878 31.7423 10.5089C31.8667 11.2939 32.2125 12.0077 32.7359 12.5817C32.1565 13.2702 31.1364 14.523 30.018 16.0822V15.4162C30.018 14.9955 29.677 14.6545 29.2563 14.6545C28.8356 14.6545 28.4946 14.9955 28.4946 15.4162V18.3265C27.8833 19.2835 27.2879 20.2952 26.7615 21.3223V17.0447C26.7615 17.0446 26.7615 17.0444 26.7615 17.0442V15.7317L28.9809 13.5124C29.2784 13.2149 29.2784 12.7326 28.9809 12.4352C28.6834 12.1377 28.2011 12.1377 27.9037 12.4352L26.7613 13.5773V11.2197C28.6138 10.8626 30.0178 9.23001 30.0178 7.27484V0.761749C30.0178 0.497789 29.8811 0.252618 29.6566 0.113782C29.432 -0.0250537 29.1517 -0.0376475 28.9155 0.0804695C28.8539 0.111243 27.4956 0.794452 25.9997 1.85466C24.5045 0.794859 23.1463 0.111751 23.0838 0.0804695C22.8475 -0.0376475 22.5671 -0.0249522 22.3427 0.113782C22.1181 0.252618 21.9814 0.497789 21.9814 0.761749V7.27484C21.9814 9.23001 23.3854 10.8627 25.2379 11.2197V15.2055L23.2817 13.2493C22.9842 12.9519 22.5019 12.9519 22.2045 13.2493C21.9071 13.5468 21.9071 14.0291 22.2045 14.3265L25.238 17.36V21.3223C23.2951 17.5318 20.4126 13.9469 19.2636 12.5817C19.787 12.0077 20.1329 11.2939 20.2573 10.5089C20.4254 9.44878 20.1705 8.38674 19.5398 7.51828L15.7125 2.24842C15.5574 2.03473 15.3024 1.91641 15.0394 1.93642C14.7762 1.95602 14.5419 2.1106 14.4202 2.3449C14.3877 2.40706 13.6903 3.75784 13.1033 5.49394C11.2713 5.51446 9.76945 5.76065 9.70151 5.77192C9.4411 5.81519 9.22152 5.99018 9.12148 6.23443C9.02134 6.47869 9.05486 6.75738 9.20994 6.97096L13.0373 12.2408C13.668 13.1093 14.5991 13.6801 15.6593 13.8483C15.8723 13.8821 16.0854 13.8987 16.2971 13.8987C16.9029 13.8987 17.496 13.7612 18.0398 13.4964C18.2751 13.7765 18.6002 14.1701 18.985 14.6546H18.3162C17.8956 14.6546 17.5545 14.9956 17.5545 15.4163C17.5545 15.8369 17.8956 16.178 18.3162 16.178H20.1561C21.269 17.6745 22.5588 19.5576 23.6075 21.5004C22.3686 20.2829 20.9918 19.1905 19.4884 18.2337C14.9268 15.3309 10.8168 14.6889 10.644 14.663C10.4249 14.6302 10.202 14.6945 10.034 14.8391C9.86594 14.9838 9.76935 15.1946 9.76935 15.4163C9.76935 15.538 9.78611 18.4449 11.2389 22.492C12.5507 26.1465 15.3374 31.4532 21.1673 36.1351V38.9264L17.9365 51.042C17.8754 51.2706 17.9242 51.5147 18.0684 51.7024C18.2125 51.89 18.4358 52 18.6724 52H33.3268C33.5635 52 33.7867 51.89 33.9308 51.7024C34.075 51.5147 34.1238 51.2707 34.0627 51.042L30.832 38.9264V36.1351C36.6617 31.4532 39.4485 26.1465 40.7604 22.492C42.2132 18.4449 42.2299 15.538 42.2299 15.4163C42.2299 15.1946 42.1332 14.9838 41.9652 14.8391C41.7972 14.6944 41.5747 14.63 41.3551 14.663C41.2543 14.6781 38.8477 15.0503 35.6791 16.5087C33.603 17.4642 30.9078 19.0373 28.3852 21.5132C29.4353 19.5663 30.7284 17.6781 31.8437 16.178H33.6829C34.1036 16.178 34.4446 15.8369 34.4446 15.4163C34.4446 14.9956 34.1036 14.6546 33.6829 14.6546H33.0146C33.3993 14.1702 33.7242 13.7766 33.9595 13.4965C34.5034 13.7612 35.0965 13.8987 35.7023 13.8987ZM40.7967 7.12219L39.6465 8.70585C39.5923 8.18453 39.4937 7.62635 39.3467 7.02855C39.8831 7.04683 40.38 7.08289 40.7967 7.12219ZM12.3527 8.70585L11.2023 7.12189C11.6186 7.08258 12.1154 7.04673 12.6525 7.02865C12.5055 7.62645 12.4069 8.18453 12.3527 8.70585ZM17.7546 11.8982C17.2153 12.2898 16.5559 12.448 15.8977 12.3436C15.2396 12.2392 14.6615 11.8849 14.2699 11.3457C13.1776 9.84172 14.3362 6.28765 15.2384 4.18826L18.3071 8.41345C19.1154 9.52647 18.8676 11.0897 17.7546 11.8982ZM28.4944 2.05494V4.0091C28.1447 3.62022 27.7353 3.22738 27.2663 2.83118C27.7109 2.53076 28.1341 2.26802 28.4944 2.05494ZM23.5048 7.27484V2.05281C25.4686 3.22139 28.4945 5.41605 28.4945 7.27484C28.4945 8.6505 27.3753 9.76962 25.9997 9.76962C24.6242 9.76962 23.5048 8.6505 23.5048 7.27484ZM12.6962 22.0425C11.7948 19.5519 11.4722 17.4989 11.3568 16.3672C12.7773 16.7132 15.6309 17.5847 18.6705 19.519C21.1885 21.1214 23.3269 23.1267 25.0258 25.4793C26.9915 28.2009 28.3731 31.4034 29.142 35.0079H27.3678C26.3937 30.7348 24.4766 27.0974 21.6625 24.1897C21.37 23.8874 20.8878 23.8795 20.5854 24.1722C20.2831 24.4647 20.2753 24.947 20.5679 25.2492C23.1108 27.8767 24.8679 31.1568 25.8018 35.0079H22.1966C16.617 30.5533 13.9506 25.5089 12.6962 22.0425ZM29.3085 36.5313V38.2644H22.6906V36.5313H29.3085ZM32.3354 50.4765H29.1089L28.9801 49.5095C28.9245 49.0926 28.5414 48.7994 28.1244 48.8552C27.7074 48.9107 27.4145 49.2938 27.47 49.7108L27.5721 50.4764H19.664L22.5142 39.7878H26.1469L27.0358 46.4542C27.0867 46.8371 27.4139 47.1154 27.7899 47.1154C27.8234 47.1154 27.8573 47.1132 27.8914 47.1086C28.3084 47.053 28.6013 46.6699 28.5458 46.2529L27.6837 39.7878H29.485L32.3354 50.4765ZM36.2677 17.9149C38.1089 17.0628 39.694 16.5989 40.6423 16.3677C40.5268 17.4998 40.2041 19.5524 39.303 22.0425C38.107 25.3475 35.6281 30.0873 30.5638 34.3824C29.8309 31.1082 28.6093 28.1478 26.9207 25.5537C29.8488 21.468 33.6028 19.1481 36.2677 17.9149ZM33.6922 8.41345L36.7614 4.18755C37.6644 6.28593 38.8238 9.83878 37.7294 11.3457C37.3377 11.8849 36.7596 12.2392 36.1015 12.3436C35.4433 12.4479 34.7839 12.2898 34.2448 11.8982C33.1316 11.0897 32.8838 9.52658 33.6922 8.41345Z" fill="#AE7C78"/>
<path d="M19.1329 21.9564C18.5945 21.5509 18.028 21.1633 17.4489 20.8045C17.0912 20.5828 16.6217 20.6931 16.4001 21.0507C16.1785 21.4083 16.2887 21.8778 16.6463 22.0994C17.1862 22.434 17.7144 22.7954 18.2163 23.1732C18.3536 23.2766 18.5144 23.3266 18.6739 23.3266C18.905 23.3266 19.1332 23.2219 19.283 23.0231C19.5362 22.687 19.4688 22.2095 19.1329 21.9564Z" fill="#AE7C78"/>
</g>

</symbol><symbol id="icon-camera" viewBox="0 0 59 52">
<path d="M51.6795 9.18921H48.9575C48.4834 9.18921 48.0992 9.5734 48.0992 10.0475C48.0992 10.5217 48.4834 10.9059 48.9575 10.9059H51.6795C52.1536 10.9059 52.5378 10.5217 52.5378 10.0475C52.5378 9.5734 52.1535 9.18921 51.6795 9.18921Z" fill="#AE7C78"/>
<path d="M36.4066 13.3298C31.607 13.3298 27.7023 17.2362 27.7023 22.0375C27.7023 26.8372 31.6069 30.7421 36.4066 30.7421C41.208 30.7421 45.1142 26.8372 45.1142 22.0375C45.1142 17.2362 41.208 13.3298 36.4066 13.3298ZM36.4066 29.0255C32.5536 29.0255 29.419 25.8908 29.419 22.0377C29.419 18.1828 32.5536 15.0465 36.4066 15.0465C40.2613 15.0465 43.3975 18.1827 43.3975 22.0377C43.3975 25.8907 40.2614 29.0255 36.4066 29.0255Z" fill="#AE7C78"/>
<path d="M55.3814 4.60615H44.9537L43.9443 1.81646C43.7816 1.36715 43.2863 0 41.8869 0H28.5343C27.1349 0 26.6396 1.36715 26.4767 1.8168L25.4674 4.60615H16.977V2.53116C16.977 1.40114 16.0577 0.48181 14.9277 0.48181H11.1036C9.97545 0.48181 9.05761 1.40114 9.05761 2.53116V4.64323C7.51639 4.87967 6.33223 6.21569 6.33223 7.82352V25.3803L2.44342 26.1346C0.808584 26.4532 -0.262271 28.0416 0.0559987 29.6743L3.90991 49.5583C4.19121 50.9969 5.4604 52 6.87779 52C7.06639 52 7.25774 51.9823 7.44967 51.9453L15.8334 50.3187C16.2987 50.2285 16.6028 49.778 16.5125 49.3126C16.4222 48.8473 15.9715 48.5429 15.5064 48.6335L7.12419 50.2598C6.41784 50.3961 5.7322 49.933 5.59487 49.2303L1.74096 29.3468C1.60363 28.6422 2.0661 27.9571 2.77096 27.8195L23.6748 23.7647C24.0137 23.6998 24.3599 23.7714 24.6498 23.9672C24.9396 24.1631 25.1351 24.4575 25.2004 24.798L29.0575 44.678C29.1949 45.3826 28.7324 46.0677 28.0275 46.2052L19.6405 47.8318C19.1752 47.9221 18.8711 48.3726 18.9613 48.8379C19.0516 49.3032 19.502 49.607 19.9673 49.5172L28.3551 47.8903C29.9899 47.5717 31.0608 45.9833 30.7425 44.3504L29.6994 38.9747H39.2801C39.7543 38.9747 40.1385 38.5905 40.1385 38.1163C40.1385 37.6422 39.7543 37.258 39.2801 37.258H29.3664L28.462 32.5962C30.7334 34.3052 33.5171 35.2528 36.4063 35.2528C42.1343 35.2528 47.0221 31.5909 48.8528 26.4862H56.8788V35.7572C56.8788 36.5847 56.2071 37.258 55.3814 37.258H43.4838C43.0096 37.258 42.6255 37.6422 42.6255 38.1163C42.6255 38.5905 43.0096 38.9747 43.4838 38.9747H55.3814C57.1536 38.9747 58.5955 37.5313 58.5955 35.7572V7.82352C58.5955 6.0494 57.1536 4.60615 55.3814 4.60615ZM28.0908 2.40127C28.2553 1.94704 28.4045 1.71678 28.5343 1.71678H41.8869C42.0484 1.71678 42.2172 2.08906 42.3302 2.40092L43.1282 4.60615H27.2929L28.0908 2.40127ZM23.1921 22.0377C23.1921 22.0617 23.1933 22.0857 23.1934 22.1096L16.977 23.3155V19.3063H23.4765C23.2906 20.188 23.1921 21.1014 23.1921 22.0377ZM10.7742 2.53116C10.7742 2.3508 10.925 2.19847 11.1035 2.19847H14.9276C15.111 2.19847 15.2603 2.34771 15.2603 2.53116V4.60615H10.7742V2.53116ZM8.04889 7.82352C8.04889 6.99609 8.72068 6.32281 9.54628 6.32281H9.91582H15.2603V23.6484L12.3545 24.212V14.5314C12.3545 13.707 11.6839 13.0363 10.8594 13.0363H8.04889V7.82352ZM8.04889 14.753H10.6379V24.5451L8.04889 25.0473V14.753ZM36.4066 33.5359C33.1748 33.5359 30.0945 32.1738 27.9181 29.7919L26.8861 24.4725C26.7343 23.6825 26.2815 22.9979 25.611 22.5448C25.3906 22.3959 25.1556 22.2787 24.9113 22.1931C24.9106 22.1413 24.9086 22.0896 24.9086 22.0377C24.9086 15.6958 30.0666 10.5363 36.4064 10.5363C42.7483 10.5363 47.9076 15.6959 47.9076 22.0377C47.9077 28.3778 42.7484 33.5359 36.4066 33.5359ZM56.8788 24.7693H49.3397C49.5258 23.8876 49.6243 22.974 49.6243 22.0377C49.6243 21.1014 49.5258 20.188 49.3398 19.3063H56.8788V24.7693ZM56.8788 17.5896H48.8535C47.0231 12.4829 42.1349 8.81964 36.4066 8.81964C30.6797 8.81964 25.7927 12.483 23.9627 17.5896H16.9769V6.32281H26.0695H44.3514H55.3813C56.207 6.32281 56.8787 6.99609 56.8787 7.82352V17.5896H56.8788Z" fill="#AE7C78"/>
<path d="M26.0021 43.462C26.2035 43.1611 26.2768 42.8087 26.2087 42.4722L23.2915 27.8132C23.1364 27.0466 22.3362 26.5781 21.4685 26.7448L5.54624 29.8329C4.67509 30.0013 4.10825 30.7378 4.25714 31.5173L7.17559 46.166C7.24036 46.5049 7.44064 46.8032 7.73979 47.006C8.00153 47.1834 8.32335 47.2766 8.65661 47.2766C8.77048 47.2766 8.88572 47.2658 9.0004 47.2436L24.9194 44.1554C25.3707 44.0683 25.7653 43.8155 26.0021 43.462ZM7.63863 39.6604L6.00299 31.493L21.6689 28.4545L22.6194 33.2307L20.6108 33.6208C16.7799 34.3637 15.508 35.511 14.2781 36.6203C13.0869 37.6948 11.8564 38.8038 7.63863 39.6604ZM8.80161 45.5335L8.40174 43.4708L7.97566 41.3432C12.6603 40.3896 14.127 39.0685 15.4279 37.8951C16.5802 36.8558 17.5752 35.9581 20.9378 35.3061L22.9543 34.9144L24.4629 42.4954L8.80161 45.5335Z" fill="#AE7C78"/>
</symbol><symbol id="icon-facebook" viewBox="0 0 12 20">
<path d="M8.46041 0C5.45614 0 3.39869 1.65638 3.39869 4.69933V7.32182H0V10.8784H3.39869V20H7.46134V10.8784H10.8506L11.3596 7.32182H7.46134V5.05071C7.46134 4.02128 7.77835 3.31953 9.41206 3.31953H11.4955V0.139979C11.1352 0.0966486 9.89947 0 8.46041 0Z" fill="#D89999"/>
</symbol><symbol id="icon-instagram" viewBox="0 0 21 20">
<path d="M5.84581 0C2.6218 0 0 2.60401 0 5.80437V14.1971C0 17.3974 2.6218 20 5.84581 20H14.3512C17.5752 20 20.197 17.3974 20.197 14.1971V5.80437C20.197 2.60401 17.5752 0 14.3512 0H5.84581ZM5.84581 1.71935H14.3512C16.6458 1.71935 18.4664 3.52664 18.4664 5.80437V14.1971C18.4664 16.4748 16.6458 18.2807 14.3512 18.2807H5.84581C3.55123 18.2807 1.73203 16.4748 1.73203 14.1971V5.80437C1.73203 3.52664 3.55123 1.71935 5.84581 1.71935ZM15.5189 3.43867C14.8499 3.43867 14.3078 3.97676 14.3078 4.64091C14.3078 5.30507 14.8499 5.84315 15.5189 5.84315C16.188 5.84315 16.73 5.30507 16.73 4.64091C16.73 3.97676 16.188 3.43867 15.5189 3.43867ZM10.0985 4.85061C7.24365 4.85061 4.91107 7.16609 4.91107 10C4.91107 12.8339 7.24365 15.1494 10.0985 15.1494C12.9534 15.1494 15.2874 12.8339 15.2874 10C15.2874 7.16609 12.9534 4.85061 10.0985 4.85061ZM10.0985 6.56996C12.0175 6.56996 13.5553 8.09513 13.5553 10C13.5553 11.9049 12.0175 13.43 10.0985 13.43C8.17955 13.43 6.6431 11.9049 6.6431 10C6.6431 8.09513 8.17955 6.56996 10.0985 6.56996Z" fill="#D89999"/>
</symbol><symbol id="icon-left" viewBox="0 0 51 16">
<path d="M0.292892 8.70711C-0.0976295 8.31658 -0.0976295 7.68342 0.292892 7.29289L6.65685 0.928932C7.04738 0.538408 7.68054 0.538408 8.07107 0.928932C8.46159 1.31946 8.46159 1.95262 8.07107 2.34315L2.41422 8L8.07107 13.6569C8.46159 14.0474 8.46159 14.6805 8.07107 15.0711C7.68054 15.4616 7.04738 15.4616 6.65685 15.0711L0.292892 8.70711ZM51 9H1V7H51V9Z" fill="#AE7C78"/>
</symbol><symbol id="icon-list" viewBox="0 0 67 52">
<path d="M54.6833 39.4846H58.8546C59.3892 39.4846 59.8226 39.0514 59.8226 38.5167V5.13934C59.8226 4.60462 59.3892 4.17136 58.8546 4.17136H7.22634C6.69176 4.17136 6.25836 4.60462 6.25836 5.13934V38.5167C6.25836 39.0514 6.69176 39.4846 7.22634 39.4846H50.1531C50.6877 39.4846 51.1211 39.0514 51.1211 38.5167C51.1211 37.9819 50.6877 37.5487 50.1531 37.5487H8.19433V6.10732H57.8867V37.5487H54.6833C54.1487 37.5487 53.7153 37.9819 53.7153 38.5167C53.7153 39.0514 54.1487 39.4846 54.6833 39.4846Z" fill="#AE7C78"/>
<path d="M65.1129 41.72H63.9952V3.57508C63.9952 1.60375 62.3908 0 60.4189 0H15.538C15.0035 0 14.5701 0.433269 14.5701 0.967982C14.5701 1.5027 15.0035 1.93596 15.538 1.93596H60.4189C61.3233 1.93596 62.0593 2.67124 62.0593 3.57508V41.72H4.02164V3.57508C4.02164 2.67124 4.75757 1.93596 5.66205 1.93596H11.0131C11.5476 1.93596 11.981 1.5027 11.981 0.967982C11.981 0.433269 11.5476 0 11.0131 0H5.66205C3.69008 0 2.08568 1.60375 2.08568 3.57508V41.72H0.967982C0.433398 41.72 0 42.1533 0 42.688V47.9035C0 50.1624 1.83775 52 4.0965 52H8.84736C9.38194 52 9.81534 51.5667 9.81534 51.032C9.81534 50.4973 9.38194 50.064 8.84736 50.064H4.0965C2.90524 50.064 1.93596 49.0948 1.93596 47.9035V43.656H25.8099L26.3296 45.3192C26.7986 46.8199 28.1701 47.8281 29.7423 47.8281H36.3383C37.9106 47.8281 39.282 46.8199 39.751 45.3192L40.2708 43.656H64.1449V47.9035C64.1449 49.0948 63.1757 50.064 61.9844 50.064H13.3775C12.8429 50.064 12.4095 50.4973 12.4095 51.032C12.4095 51.5667 12.8429 52 13.3775 52H61.9844C64.2432 52 66.0809 50.1624 66.0809 47.9035V42.688C66.0809 42.1533 65.6475 41.72 65.1129 41.72ZM37.9033 44.7417C37.6883 45.4299 37.0594 45.8922 36.3384 45.8922H29.7425C29.0215 45.8922 28.3926 45.4299 28.1776 44.7417L27.8383 43.656H38.2426L37.9033 44.7417Z" fill="#AE7C78"/>
<path d="M24.3053 23.3175C24.7667 23.3175 25.164 22.9919 25.2545 22.5394L26.4279 16.6724C26.4847 16.3881 26.4111 16.0932 26.2274 15.8689C26.0434 15.6447 25.7688 15.5146 25.4788 15.5146H18.0473C17.5127 15.5146 17.0793 15.9478 17.0793 16.4826C17.0793 17.0173 17.5127 17.4505 18.0473 17.4505H24.298L23.5117 21.3816H15.9856L14.6969 14.3523C14.6126 13.8926 14.2121 13.559 13.7448 13.559H11.3981C10.8635 13.559 10.4301 13.9923 10.4301 14.527C10.4301 15.0617 10.8635 15.495 11.3981 15.495H12.9383L14.2111 22.4376V26.5217C14.2111 27.0564 14.6445 27.4897 15.1791 27.4897H15.2244C15.1958 27.5969 15.1791 27.7091 15.1791 27.8254C15.1791 28.5454 15.7628 29.1292 16.4829 29.1292C17.0736 29.1292 17.5718 28.7362 17.7321 28.1975C17.7702 28.075 17.7907 27.9448 17.7907 27.8098C17.7907 27.6991 17.7755 27.5923 17.7495 27.4897H19.9179C19.913 27.509 19.9071 27.5281 19.9031 27.5479C19.8836 27.6375 19.8727 27.7301 19.8727 27.8255C19.8727 28.5455 20.4565 29.1293 21.1766 29.1293C21.8073 29.1293 22.3334 28.6813 22.4542 28.0862C22.4734 27.9972 22.4841 27.9047 22.4841 27.8099C22.4841 27.6993 22.4689 27.5924 22.4429 27.4898H22.7411C23.2757 27.4898 23.7091 27.0565 23.7091 26.5218C23.7091 25.9871 23.2757 25.5538 22.7411 25.5538H16.1472V23.3178H24.3053V23.3175Z" fill="#AE7C78"/>
<path d="M37.3983 11.3977C37.3983 10.863 36.9649 10.4297 36.4303 10.4297H32.2583C31.7237 10.4297 31.2903 10.863 31.2903 11.3977V15.5698C31.2903 16.1046 31.7237 16.5378 32.2583 16.5378H36.4303C36.9649 16.5378 37.3983 16.1046 37.3983 15.5698V11.3977ZM35.4623 14.6019H33.2262V12.3658H35.4623V14.6019Z" fill="#AE7C78"/>
<path d="M40.6022 16.5378H49.4677C50.0023 16.5378 50.4357 16.1046 50.4357 15.5699C50.4357 15.0353 50.0023 14.6021 49.4677 14.6021H40.6022C40.0676 14.6021 39.6342 15.0353 39.6342 15.5699C39.6342 16.1046 40.0676 16.5378 40.6022 16.5378Z" fill="#AE7C78"/>
<path d="M40.6022 12.3658H54.6829C55.2174 12.3658 55.6508 11.9325 55.6508 11.3978C55.6508 10.8631 55.2174 10.4298 54.6829 10.4298H40.6022C40.0676 10.4298 39.6342 10.8631 39.6342 11.3978C39.6342 11.9325 40.0676 12.3658 40.6022 12.3658Z" fill="#AE7C78"/>
<path d="M37.3983 19.7419C37.3983 19.2072 36.9649 18.774 36.4303 18.774H32.2583C31.7237 18.774 31.2903 19.2072 31.2903 19.7419V23.9139C31.2903 24.4487 31.7237 24.8819 32.2583 24.8819H36.4303C36.9649 24.8819 37.3983 24.4487 37.3983 23.9139V19.7419ZM35.4623 22.946H33.2262V20.7099H35.4623V22.946Z" fill="#AE7C78"/>
<path d="M40.6022 24.8818H49.4677C50.0023 24.8818 50.4357 24.4486 50.4357 23.9139C50.4357 23.3793 50.0023 22.946 49.4677 22.946H40.6022C40.0676 22.946 39.6342 23.3793 39.6342 23.9139C39.6342 24.4486 40.0676 24.8818 40.6022 24.8818Z" fill="#AE7C78"/>
<path d="M40.6022 20.7099H54.6829C55.2174 20.7099 55.6508 20.2767 55.6508 19.7419C55.6508 19.2072 55.2174 18.774 54.6829 18.774H40.6022C40.0676 18.774 39.6342 19.2072 39.6342 19.7419C39.6342 20.2767 40.0676 20.7099 40.6022 20.7099Z" fill="#AE7C78"/>
<path d="M36.4303 27.1181H32.2583C31.7237 27.1181 31.2903 27.5514 31.2903 28.0861V32.2581C31.2903 32.7928 31.7237 33.2261 32.2583 33.2261H36.4303C36.9649 33.2261 37.3983 32.7928 37.3983 32.2581V28.0861C37.3983 27.5515 36.9649 27.1181 36.4303 27.1181ZM35.4623 31.2901H33.2262V29.0541H35.4623V31.2901Z" fill="#AE7C78"/>
<path d="M40.6022 31.2901C40.0676 31.2901 39.6342 31.7233 39.6342 32.2581C39.6342 32.7928 40.0676 33.226 40.6022 33.226H49.4678C50.0023 33.226 50.4357 32.7928 50.4357 32.2581C50.4357 31.7233 50.0023 31.2901 49.4678 31.2901H40.6022Z" fill="#AE7C78"/>
<path d="M55.6508 28.0861C55.6508 27.5514 55.2174 27.1182 54.6828 27.1182H40.6022C40.0676 27.1182 39.6342 27.5514 39.6342 28.0861C39.6342 28.6207 40.0676 29.054 40.6022 29.054H54.6828C55.2174 29.054 55.6508 28.6207 55.6508 28.0861Z" fill="#AE7C78"/>
</symbol><symbol id="icon-payment" viewBox="0 0 70 52">
<path d="M22.0023 14.733H10.2449C8.82706 14.733 7.67353 15.8865 7.67353 17.3043V26.5864C7.67353 28.0042 8.82706 29.1577 10.2449 29.1577H22.0021C23.4199 29.1577 24.5735 28.0042 24.5735 26.5864V17.3043C24.5735 15.8865 23.4201 14.733 22.0023 14.733ZM22.5248 17.3043V20.921H17.1478V16.7815H22.0021C22.2904 16.7817 22.5248 17.0162 22.5248 17.3043ZM9.72219 26.5864V17.3043C9.72219 17.0162 9.95669 16.7817 10.2449 16.7817H15.0991V27.1091H10.2449C9.95669 27.1091 9.72219 26.8746 9.72219 26.5864ZM22.0023 27.1091H17.1479V22.9697H22.5249V26.5863C22.5248 26.8746 22.2904 27.1091 22.0023 27.1091Z" fill="#AE7C78"/>
<path d="M7.67353 40.9919C7.67353 41.5577 8.13216 42.0162 8.69786 42.0162H38.8407C39.4064 42.0162 39.8651 41.5577 39.8651 40.9919C39.8651 40.426 39.4064 39.9676 38.8407 39.9676H8.69786C8.13216 39.9676 7.67353 40.426 7.67353 40.9919Z" fill="#AE7C78"/>
<path d="M8.69785 43.8689C8.13215 43.8689 7.67352 44.3274 7.67352 44.8933C7.67352 45.4592 8.13215 45.9177 8.69785 45.9177H23.7693C24.335 45.9177 24.7936 45.4592 24.7936 44.8933C24.7936 44.3274 24.335 43.8689 23.7693 43.8689H8.69785Z" fill="#AE7C78"/>
<path d="M26.889 36.105V33.6286C26.889 33.0627 26.4304 32.6042 25.8647 32.6042C25.299 32.6042 24.8404 33.0627 24.8404 33.6286V36.105C24.8404 36.6708 25.299 37.1293 25.8647 37.1293C26.4304 37.1293 26.889 36.6708 26.889 36.105Z" fill="#AE7C78"/>
<path d="M31.5711 36.105V33.6286C31.5711 33.0627 31.1124 32.6042 30.5467 32.6042C29.981 32.6042 29.5224 33.0627 29.5224 33.6286V36.105C29.5224 36.6708 29.981 37.1293 30.5467 37.1293C31.1124 37.1293 31.5711 36.6708 31.5711 36.105Z" fill="#AE7C78"/>
<path d="M36.2528 36.105V33.6286C36.2528 33.0627 35.7942 32.6042 35.2285 32.6042C34.6628 32.6042 34.2042 33.0627 34.2042 33.6286V36.105C34.2042 36.6708 34.6628 37.1293 35.2285 37.1293C35.7942 37.1293 36.2528 36.6708 36.2528 36.105Z" fill="#AE7C78"/>
<path d="M40.9348 36.105V33.6286C40.9348 33.0627 40.4761 32.6042 39.9104 32.6042C39.3447 32.6042 38.8861 33.0627 38.8861 33.6286V36.105C38.8861 36.6708 39.3447 37.1293 39.9104 37.1293C40.4761 37.1293 40.9348 36.6708 40.9348 36.105Z" fill="#AE7C78"/>
<path d="M46.6891 33.6286V36.105C46.6891 36.6708 47.1478 37.1293 47.7135 37.1293C48.2792 37.1293 48.7378 36.6708 48.7378 36.105V33.6286C48.7378 33.0627 48.2792 32.6042 47.7135 32.6042C47.1478 32.6042 46.6891 33.0629 46.6891 33.6286Z" fill="#AE7C78"/>
<path d="M51.371 33.6286V36.105C51.371 36.6708 51.8297 37.1293 52.3954 37.1293C52.9611 37.1293 53.4197 36.6708 53.4197 36.105V33.6286C53.4197 33.0627 52.9611 32.6042 52.3954 32.6042C51.8297 32.6042 51.371 33.0629 51.371 33.6286Z" fill="#AE7C78"/>
<path d="M56.0529 33.6286V36.105C56.0529 36.6708 56.5116 37.1293 57.0773 37.1293C57.643 37.1293 58.1016 36.6708 58.1016 36.105V33.6286C58.1016 33.0627 57.643 32.6042 57.0773 32.6042C56.5116 32.6042 56.0529 33.0629 56.0529 33.6286Z" fill="#AE7C78"/>
<path d="M8.69786 37.1293C9.26356 37.1293 9.72219 36.6708 9.72219 36.105V33.6286C9.72219 33.0627 9.26356 32.6042 8.69786 32.6042C8.13216 32.6042 7.67353 33.0627 7.67353 33.6286V36.105C7.67353 36.6708 8.13216 37.1293 8.69786 37.1293Z" fill="#AE7C78"/>
<path d="M14.4041 36.105V33.6286C14.4041 33.0627 13.9455 32.6042 13.3798 32.6042C12.8141 32.6042 12.3554 33.0627 12.3554 33.6286V36.105C12.3554 36.6708 12.8141 37.1293 13.3798 37.1293C13.9455 37.1293 14.4041 36.6708 14.4041 36.105Z" fill="#AE7C78"/>
<path d="M19.086 36.105V33.6286C19.086 33.0627 18.6274 32.6042 18.0617 32.6042C17.496 32.6042 17.0373 33.0627 17.0373 33.6286V36.105C17.0373 36.6708 17.496 37.1293 18.0617 37.1293C18.6274 37.1293 19.086 36.6708 19.086 36.105Z" fill="#AE7C78"/>
<path d="M69.9276 10.4064C69.9276 4.66822 65.2593 0 59.5212 0C54.3817 0 50.1034 3.74605 49.2661 8.65055H22.7606C22.1949 8.65055 21.7363 9.10904 21.7363 9.67488C21.7363 10.2407 22.1949 10.6992 22.7606 10.6992H49.119C49.2756 16.3384 53.9299 20.8106 59.5173 20.8127C59.5186 20.8127 59.5199 20.8128 59.5212 20.8128C59.5226 20.8128 59.5212 20.8128 59.5212 20.8128C59.5223 20.8128 59.5234 20.8127 59.5246 20.8127C61.021 20.8121 62.4717 20.483 63.7266 19.9278V37.1539C63.7266 37.7197 64.1852 38.1782 64.7509 38.1782C65.3166 38.1782 65.7752 37.7197 65.7752 37.1539V18.7177C68.2952 16.8168 69.9276 13.7988 69.9276 10.4064ZM59.5212 2.04866C64.1298 2.04866 67.8789 5.79799 67.8789 10.4064C67.8789 15.0237 64.1191 18.764 59.5212 18.764C54.8226 18.764 50.9802 14.8531 51.1721 10.0678C51.3865 5.46515 55.146 2.04866 59.5212 2.04866Z" fill="#AE7C78"/>
<path d="M56.6877 14.3487C57.0344 14.9106 57.8157 15.0029 58.2837 14.5351L64.9091 7.90961C65.3091 7.50944 65.3091 6.86097 64.9091 6.46093C64.509 6.06104 63.8604 6.06104 63.4605 6.46093L57.7509 12.1707L55.5417 8.59072C55.2447 8.10929 54.6135 7.96001 54.132 8.25692C53.6506 8.55412 53.5012 9.18524 53.7983 9.66654L56.6877 14.3487Z" fill="#AE7C78"/>
<path d="M64.7508 40.9097C64.1851 40.9097 63.7265 41.3682 63.7265 41.934V46.1586C63.7265 48.25 62.025 49.9515 59.9335 49.9515H5.84168C3.75014 49.9515 2.04866 48.25 2.04866 46.1586V14.4923C2.04866 12.4009 3.75014 10.6993 5.84168 10.6993H17.9804C18.5461 10.6993 19.0047 10.2408 19.0047 9.67496C19.0047 9.10912 18.5461 8.65063 17.9804 8.65063H5.84168C2.62064 8.65063 0 11.2711 0 14.4923V46.1585C0 49.3795 2.62064 52 5.84168 52H59.9335C63.1545 52 65.7751 49.3794 65.7751 46.1585V41.9339C65.7751 41.3682 65.3165 40.9097 64.7508 40.9097Z" fill="#AE7C78"/>
<path d="M59.3408 27.5829V24.5548C59.3408 23.6866 58.6342 22.9801 57.7659 22.9801H47.3054C46.4371 22.9801 45.7306 23.6866 45.7306 24.5548V27.5829C45.7306 28.4512 46.4371 29.1577 47.3054 29.1577H57.7659C58.6342 29.1577 59.3408 28.4512 59.3408 27.5829ZM57.2921 27.1091H47.7791V25.0287H57.2921V27.1091Z" fill="#AE7C78"/>
</symbol><symbol id="icon-portrait" viewBox="0 0 38 52">
<path d="M35.216 37.2539C34.5305 33.8206 31.3098 33.2362 31.2996 33.2315V33.2316C31.265 33.2214 31.595 33.3042 23.4446 31.2839V31.0074H29.4445C30.6812 31.0074 31.6873 30.0012 31.6873 28.7646V17.3219C31.7881 16.8964 31.7883 16.4541 31.6873 16.0278V11.8516C31.6873 11.4307 31.3461 11.0898 30.9254 11.0898C30.5046 11.0898 30.1636 11.4307 30.1636 11.8516V14.0379C29.7614 13.7979 29.3021 13.6257 28.807 13.5405C28.6283 12.7466 27.9689 12.1189 27.1328 12.0091C26.2612 11.8946 25.6006 11.3864 25.1695 10.499C24.9677 10.0835 24.5724 9.8106 24.1123 9.76875C23.6518 9.72711 23.2158 9.92384 22.9429 10.2954C21.6334 12.0776 17.9928 16.075 11.7064 16.0748C11.2281 16.0748 10.9039 16.0521 10.7909 16.0471C9.63574 15.9775 8.65901 16.9005 8.65901 18.058V19.8084C8.65901 22.6062 9.81967 25.3185 11.8432 27.2498C12.5143 27.8904 13.2546 28.4247 14.0441 28.8508V29.4839H8.07167C7.67507 29.4839 7.3524 29.1613 7.3524 28.7648V11.6463C7.3524 6.09665 11.8773 1.52368 17.3432 1.52368C17.3609 1.52368 17.3786 1.52378 17.3962 1.52388C19.3545 1.53434 21.6156 2.0906 23.1564 2.94058C24.1329 3.47958 24.7361 3.05118 25.7004 3.05118C28.0542 3.05118 29.9404 5.47143 30.1665 7.64822C30.1679 7.68011 30.1712 7.80778 30.1716 8.2969C30.1721 9.03232 31.0027 9.08879 30.9341 9.05812C31.3549 9.05781 31.6956 8.71636 31.6953 8.29569C31.6952 8.1604 31.6963 7.62994 31.6836 7.50685C31.3773 4.47652 28.7924 1.52754 25.7005 1.52754C24.493 1.52754 24.3048 1.83365 23.8925 1.60655C22.1453 0.642622 19.5985 0.0120182 17.4044 0.000236869C11.0799 -0.040693 5.82865 5.22808 5.82865 11.6462V28.7647C5.82865 30.0014 6.83484 31.0075 8.07157 31.0075H14.0441V31.284L6.21987 33.2232C6.20951 33.2257 6.19936 33.2287 6.1891 33.2316L5.6175 33.4002C5.60034 33.4053 5.58348 33.4109 5.56672 33.417C4.54663 33.7977 2.76227 34.8023 2.27263 37.2543C-0.0460455 48.9017 0.0515568 48.4044 0.0459708 48.4443C-0.233327 50.4198 0.75559 52 3.1345 52H11.3728C11.7936 52 12.1346 51.659 12.1346 51.2382C12.1346 50.8173 11.7935 50.4764 11.3728 50.4764H8.50595V43.2908C8.50595 42.8699 8.1649 42.529 7.74413 42.529C7.32335 42.529 6.98231 42.87 6.98231 43.2908V50.4764H3.1345C2.12252 50.4764 1.53488 50.1505 1.52513 49.0875C1.52087 48.5689 1.50045 49.0744 3.76693 37.5522C4.10808 35.8436 5.34877 35.1299 6.07565 34.8536L6.60398 34.6978L11.0971 33.5841C16.0953 39.4723 15.7994 39.1603 16.0882 39.4421C17.7565 41.0694 20.1369 40.9545 21.7036 39.1146L26.4085 33.5883L30.8845 34.6977C31.014 34.7572 33.2421 35.1491 33.7218 37.5519C35.9687 48.9743 35.9679 48.5665 35.9637 49.0869C35.9559 50.1281 35.3927 50.4765 34.3543 50.4765H30.5338V43.2908C30.5338 42.8699 30.1929 42.529 29.772 42.529C29.3511 42.529 29.0102 42.87 29.0102 43.2908V50.4764H14.928C14.5071 50.4764 14.1662 50.8174 14.1662 51.2382C14.1662 51.6591 14.5072 52 14.928 52H34.3544C36.2366 52 37.47 50.9644 37.4874 49.0991C37.4938 48.228 37.4419 48.6442 35.216 37.2539ZM28.8569 15.1122C29.4931 15.3014 29.9837 15.7206 30.1637 16.2384V17.1112C29.9837 17.6291 29.4931 18.0484 28.8569 18.2375V15.1122ZM28.8569 19.9411V19.8004C29.333 19.7125 29.7751 19.5439 30.1637 19.3118V28.7647C30.1637 29.1613 29.8411 29.4837 29.4445 29.4837H23.4446V28.895C26.6747 27.2063 28.8569 23.8252 28.8569 19.9411ZM12.8953 26.1475C11.1715 24.5021 10.1829 22.1916 10.1829 19.8082C10.2282 18.1495 10.0731 17.9485 10.3377 17.6993C10.4315 17.6109 10.5575 17.5596 10.6994 17.5678C16.1619 17.8966 20.8602 15.4953 23.9621 11.4746C24.7985 12.9432 26.025 13.4004 26.9344 13.52C27.1617 13.5498 27.3333 13.7438 27.3333 13.9714C27.3333 16.079 27.3333 17.8488 27.3333 19.9412C27.3333 27.5214 18.2584 31.2662 12.8953 26.1475ZM20.5433 38.1268C19.4818 39.3737 17.996 39.3704 16.9371 38.1205L15.3475 36.2444H22.1459L20.5433 38.1268ZM23.4433 34.7206H14.0568L12.7475 33.1752L14.9894 32.6195C15.3295 32.5353 15.5679 32.2227 15.5679 31.8725L15.568 29.5156C17.6643 30.2144 19.878 30.2068 21.921 29.5373C21.9353 31.9723 21.8883 31.9166 21.9634 32.1314C22.0465 32.3688 22.2445 32.5562 22.4994 32.6194L24.756 33.1787L23.4433 34.7206Z" fill="#AE7C78"/>
</symbol><symbol id="icon-right" viewBox="0 0 51 16">
<path d="M50.7071 8.70711C51.0976 8.31658 51.0976 7.68342 50.7071 7.29289L44.3431 0.928932C43.9526 0.538408 43.3195 0.538408 42.9289 0.928932C42.5384 1.31946 42.5384 1.95262 42.9289 2.34315L48.5858 8L42.9289 13.6569C42.5384 14.0474 42.5384 14.6805 42.9289 15.0711C43.3195 15.4616 43.9526 15.4616 44.3431 15.0711L50.7071 8.70711ZM0 9H50V7H0V9Z" fill="#AE7C78"/>
</symbol><symbol id="icon-twitter" viewBox="0 0 26 20">
<path d="M25.7588 2.36717C24.8116 2.76883 23.7929 3.04029 22.7241 3.16259C23.8149 2.53743 24.6525 1.54801 25.0471 0.36927C24.0262 0.948099 22.8956 1.36795 21.6913 1.59426C20.7278 0.613218 19.3544 0 17.8345 0C14.9158 0 12.5503 2.26041 12.5503 5.04887C12.5503 5.44474 12.5966 5.83021 12.687 6.19951C8.29503 5.98923 4.40126 3.97853 1.79486 0.924148C1.33997 1.66952 1.07939 2.53671 1.07939 3.46218C1.07939 5.21411 2.01193 6.75926 3.43028 7.66504C2.56407 7.63916 1.74915 7.41194 1.03665 7.03349C1.03563 7.05477 1.03563 7.07575 1.03563 7.09687C1.03563 9.54362 2.8574 11.5838 5.27461 12.048C4.83157 12.1634 4.36482 12.2244 3.88283 12.2244C3.54197 12.2244 3.2115 12.1936 2.88828 12.1344C3.56119 14.1402 5.51239 15.6002 7.82521 15.641C6.01517 16.9955 3.73697 17.8022 1.26097 17.8022C0.834721 17.8022 0.413742 17.7783 0 17.7319C2.33958 19.1644 5.11689 20 8.10148 20C17.8212 20 23.1358 12.3067 23.1358 5.63404C23.1358 5.41524 23.1305 5.19793 23.1209 4.9814C24.1529 4.26896 25.0487 3.37993 25.7576 2.36721" fill="#D89999"/>
</symbol></svg>